HIERARCHY
ROOT newVegas:Hips
{
	OFFSET 0.000000 96.479958 0.000000
	CHANNELS 6 Xposition Yposition Zposition Xrotation Yrotation Zrotation
	JOINT newVegas:Pelvis
	{
		OFFSET 0.000000 0.000000 0.000000
		CHANNELS 3 Xrotation Yrotation Zrotation
		JOINT newVegas:LeftUpLeg
		{
			OFFSET 18.735201 -5.666702 -4.541200
			CHANNELS 3 Xrotation Yrotation Zrotation
			JOINT newVegas:LeftLeg
			{
				OFFSET -0.021200 -31.938179 0.493100
				CHANNELS 3 Xrotation Yrotation Zrotation
				JOINT newVegas:LeftFoot
				{
					OFFSET 0.021200 -31.938179 -4.336299
					CHANNELS 3 Xrotation Yrotation Zrotation
					JOINT newVegas:LeftToeBase
					{
						OFFSET 0.943001 -26.722000 15.023500
						CHANNELS 3 Xrotation Yrotation Zrotation
						End Site
						{
							OFFSET 0.000000 30.670183 0.000000
						}
					}
				}
				JOINT newVegas:Left_PantLeg
				{
					OFFSET 0.663870 -9.044666 -1.108900
					CHANNELS 3 Xrotation Yrotation Zrotation
					End Site
					{
						OFFSET 1.415995 20.635357 0.000000
					}
				}
			}
		}
		JOINT newVegas:RightUpLeg
		{
			OFFSET -18.735201 -5.666702 -4.541200
			CHANNELS 3 Xrotation Yrotation Zrotation
			JOINT newVegas:RightLeg
			{
				OFFSET 0.018946 -31.938133 0.493100
				CHANNELS 3 Xrotation Yrotation Zrotation
				JOINT newVegas:RightFoot
				{
					OFFSET -0.018946 -31.938126 -4.336299
					CHANNELS 3 Xrotation Yrotation Zrotation
					JOINT newVegas:RightToeBase
					{
						OFFSET -0.943001 -26.722004 15.023500
						CHANNELS 3 Xrotation Yrotation Zrotation
						End Site
						{
							OFFSET 0.000000 30.670187 0.000000
						}
					}
				}
				JOINT newVegas:Right_PantLeg
				{
					OFFSET -0.661674 -9.044716 -1.108900
					CHANNELS 3 Xrotation Yrotation Zrotation
					End Site
					{
						OFFSET -1.415958 20.635269 0.000000
					}
				}
			}
		}
	}
	JOINT newVegas:Spine
	{
		OFFSET 0.000000 10.199997 -0.299500
		CHANNELS 3 Xrotation Yrotation Zrotation
		JOINT newVegas:Spine1
		{
			OFFSET 0.000000 11.900002 -1.516600
			CHANNELS 3 Xrotation Yrotation Zrotation
			JOINT newVegas:Spine2
			{
				OFFSET 0.000000 13.600006 -2.842500
				CHANNELS 3 Xrotation Yrotation Zrotation
				JOINT newVegas:Neck
				{
					OFFSET 0.000000 9.624100 -2.890100
					CHANNELS 3 Xrotation Yrotation Zrotation
					JOINT newVegas:Head
					{
						OFFSET 0.000000 14.068802 -1.351900
						CHANNELS 3 Xrotation Yrotation Zrotation
						JOINT newVegas:Hair_Back
						{
							OFFSET 0.000000 3.231903 -17.524799
							CHANNELS 3 Xrotation Yrotation Zrotation
							End Site
							{
								OFFSET 0.000000 19.849884 0.000000
							}
						}
						JOINT newVegas:Hair_Front
						{
							OFFSET 0.000000 31.260406 4.573800
							CHANNELS 3 Xrotation Yrotation Zrotation
							JOINT newVegas:Hair_Front1
							{
								OFFSET 0.000000 2.284103 11.993300
								CHANNELS 3 Xrotation Yrotation Zrotation
								JOINT newVegas:Hair_Front2
								{
									OFFSET 0.000000 2.284103 11.993300
									CHANNELS 3 Xrotation Yrotation Zrotation
									End Site
									{
										OFFSET 0.000000 12.208862 0.000000
									}
								}
							}
						}
						JOINT newVegas:Jowel
						{
							OFFSET 0.000000 -7.458206 6.864100
							CHANNELS 3 Xrotation Yrotation Zrotation
							End Site
							{
								OFFSET 0.000000 19.849884 0.000000
							}
						}
					}
				}
				JOINT newVegas:LeftShoulder
				{
					OFFSET 15.263000 10.923401 -0.547700
					CHANNELS 3 Xrotation Yrotation Zrotation
					JOINT newVegas:LeftArm
					{
						OFFSET 25.438599 -2.830597 -13.032500
						CHANNELS 3 Xrotation Yrotation Zrotation
						JOINT newVegas:LeftForeArm
						{
							OFFSET 29.960503 0.000000 0.000000
							CHANNELS 3 Xrotation Yrotation Zrotation
							JOINT newVegas:LeftHand
							{
								OFFSET 27.849251 0.000000 0.000000
								CHANNELS 3 Xrotation Yrotation Zrotation
								JOINT newVegas:LeftHandThumb1
								{
									OFFSET 4.487587 -3.305161 6.305391
									CHANNELS 3 Xrotation Yrotation Zrotation
									JOINT newVegas:LeftHandThumb2
									{
										OFFSET 5.480453 -3.164139 3.164143
										CHANNELS 3 Xrotation Yrotation Zrotation
										JOINT newVegas:LeftHandThumb3
										{
											OFFSET 5.159721 -2.978973 2.978967
											CHANNELS 3 Xrotation Yrotation Zrotation
											End Site
											{
												OFFSET 2.494507 5.926697 1.738678
											}
										}
									}
								}
								JOINT newVegas:LeftHandIndex1
								{
									OFFSET 18.578728 -0.527832 5.208049
									CHANNELS 3 Xrotation Yrotation Zrotation
									JOINT newVegas:LeftHandIndex2
									{
										OFFSET 3.192009 0.000000 0.000000
										CHANNELS 3 Xrotation Yrotation Zrotation
										JOINT newVegas:LeftHandIndex3
										{
											OFFSET 3.835129 0.000000 0.000000
											CHANNELS 3 Xrotation Yrotation Zrotation
											End Site
											{
												OFFSET -0.034599 3.816971 0.371180
											}
										}
									}
								}
								JOINT newVegas:LeftHandMiddle1
								{
									OFFSET 18.476105 0.000000 0.000000
									CHANNELS 3 Xrotation Yrotation Zrotation
									JOINT newVegas:LeftHandMiddle2
									{
										OFFSET 3.324875 0.000000 0.000000
										CHANNELS 3 Xrotation Yrotation Zrotation
										JOINT newVegas:LeftHandMiddle3
										{
											OFFSET 4.596550 0.000000 0.000000
											CHANNELS 3 Xrotation Yrotation Zrotation
											End Site
											{
												OFFSET 0.057701 4.578827 0.399218
											}
										}
									}
								}
								JOINT newVegas:LeftHandRing1
								{
									OFFSET 17.732719 0.121887 -4.201567
									CHANNELS 3 Xrotation Yrotation Zrotation
									JOINT newVegas:LeftHandRing2
									{
										OFFSET 2.733170 0.000000 0.000000
										CHANNELS 3 Xrotation Yrotation Zrotation
										JOINT newVegas:LeftHandRing3
										{
											OFFSET 3.178268 0.000000 0.000000
											CHANNELS 3 Xrotation Yrotation Zrotation
											End Site
											{
												OFFSET 0.119102 3.170624 0.185394
											}
										}
									}
								}
								JOINT newVegas:LeftHandPinky1
								{
									OFFSET 15.989624 -0.606689 -7.535461
									CHANNELS 3 Xrotation Yrotation Zrotation
									JOINT newVegas:LeftHandPinky2
									{
										OFFSET 2.538986 0.000000 0.000000
										CHANNELS 3 Xrotation Yrotation Zrotation
										JOINT newVegas:LeftHandPinky3
										{
											OFFSET 2.593102 0.000000 0.000000
											CHANNELS 3 Xrotation Yrotation Zrotation
											End Site
											{
												OFFSET -0.150902 2.584198 0.152708
											}
										}
									}
								}
							}
							JOINT newVegas:Left_Sleeve
							{
								OFFSET 0.267448 -0.649796 0.577675
								CHANNELS 3 Xrotation Yrotation Zrotation
								End Site
								{
									OFFSET 0.000000 15.991241 0.000000
								}
							}
							JOINT newVegas:Left_CapeC
							{
								OFFSET 15.715958 -8.608795 -6.935905
								CHANNELS 3 Xrotation Yrotation Zrotation
								JOINT newVegas:Left_CapeC1
								{
									OFFSET 0.000000 -8.688499 0.000000
									CHANNELS 3 Xrotation Yrotation Zrotation
									End Site
									{
										OFFSET 0.000000 8.688499 0.000000
									}
								}
							}
						}
						JOINT newVegas:Left_CapeB
						{
							OFFSET 26.118385 -8.608795 -7.079235
							CHANNELS 3 Xrotation Yrotation Zrotation
							JOINT newVegas:Left_CapeB1
							{
								OFFSET 0.000000 -8.688499 0.000000
								CHANNELS 3 Xrotation Yrotation Zrotation
								End Site
								{
									OFFSET 0.000000 8.688499 0.000000
								}
							}
						}
						JOINT newVegas:Left_CapeA
						{
							OFFSET 5.115639 -8.608795 -10.395809
							CHANNELS 3 Xrotation Yrotation Zrotation
							JOINT newVegas:Left_CapeA1
							{
								OFFSET 0.000000 -8.688499 0.000000
								CHANNELS 3 Xrotation Yrotation Zrotation
								End Site
								{
									OFFSET 0.000000 8.688499 0.000000
								}
							}
						}
					}
				}
				JOINT newVegas:RightShoulder
				{
					OFFSET -15.263000 10.923401 -0.547700
					CHANNELS 3 Xrotation Yrotation Zrotation
					JOINT newVegas:RightArm
					{
						OFFSET -25.438599 -2.830597 -13.032500
						CHANNELS 3 Xrotation Yrotation Zrotation
						JOINT newVegas:RightForeArm
						{
							OFFSET -29.960503 0.000000 0.000000
							CHANNELS 3 Xrotation Yrotation Zrotation
							JOINT newVegas:RightHand
							{
								OFFSET -27.849251 0.000000 0.000000
								CHANNELS 3 Xrotation Yrotation Zrotation
								JOINT newVegas:RightHandThumb1
								{
									OFFSET -4.487587 -3.305161 6.305391
									CHANNELS 3 Xrotation Yrotation Zrotation
									JOINT newVegas:RightHandThumb2
									{
										OFFSET -5.480453 -3.164139 3.164143
										CHANNELS 3 Xrotation Yrotation Zrotation
										JOINT newVegas:RightHandThumb3
										{
											OFFSET -5.159721 -2.978973 2.978967
											CHANNELS 3 Xrotation Yrotation Zrotation
											End Site
											{
												OFFSET -2.494507 5.926697 1.738678
											}
										}
									}
								}
								JOINT newVegas:RightHandIndex1
								{
									OFFSET -18.578728 -0.527832 5.208049
									CHANNELS 3 Xrotation Yrotation Zrotation
									JOINT newVegas:RightHandIndex2
									{
										OFFSET -3.192009 0.000000 0.000000
										CHANNELS 3 Xrotation Yrotation Zrotation
										JOINT newVegas:RightHandIndex3
										{
											OFFSET -3.835129 0.000000 0.000000
											CHANNELS 3 Xrotation Yrotation Zrotation
											End Site
											{
												OFFSET 0.034599 3.816971 0.371180
											}
										}
									}
								}
								JOINT newVegas:RightHandMiddle1
								{
									OFFSET -18.476105 0.000000 0.000000
									CHANNELS 3 Xrotation Yrotation Zrotation
									JOINT newVegas:RightHandMiddle2
									{
										OFFSET -3.324875 0.000000 0.000000
										CHANNELS 3 Xrotation Yrotation Zrotation
										JOINT newVegas:RightHandMiddle3
										{
											OFFSET -4.596550 0.000000 0.000000
											CHANNELS 3 Xrotation Yrotation Zrotation
											End Site
											{
												OFFSET -0.057701 4.578827 0.399218
											}
										}
									}
								}
								JOINT newVegas:RightHandRing1
								{
									OFFSET -17.732719 0.121887 -4.201567
									CHANNELS 3 Xrotation Yrotation Zrotation
									JOINT newVegas:RightHandRing2
									{
										OFFSET -2.733170 0.000000 0.000000
										CHANNELS 3 Xrotation Yrotation Zrotation
										JOINT newVegas:RightHandRing3
										{
											OFFSET -3.178268 0.000000 0.000000
											CHANNELS 3 Xrotation Yrotation Zrotation
											End Site
											{
												OFFSET -0.119102 3.170624 0.185394
											}
										}
									}
								}
								JOINT newVegas:RightHandPinky1
								{
									OFFSET -15.989624 -0.606689 -7.535461
									CHANNELS 3 Xrotation Yrotation Zrotation
									JOINT newVegas:RightHandPinky2
									{
										OFFSET -2.538986 0.000000 0.000000
										CHANNELS 3 Xrotation Yrotation Zrotation
										JOINT newVegas:RightHandPinky3
										{
											OFFSET -2.593102 0.000000 0.000000
											CHANNELS 3 Xrotation Yrotation Zrotation
											End Site
											{
												OFFSET 0.150902 2.584198 0.152708
											}
										}
									}
								}
							}
							JOINT newVegas:Right_CapeC
							{
								OFFSET -15.715958 -8.608795 -6.935905
								CHANNELS 3 Xrotation Yrotation Zrotation
								JOINT newVegas:Right_CapeC1
								{
									OFFSET 0.000000 -8.688499 0.000000
									CHANNELS 3 Xrotation Yrotation Zrotation
									End Site
									{
										OFFSET 0.000000 8.688499 0.000000
									}
								}
							}
							JOINT newVegas:Right_Sleeve
							{
								OFFSET -0.267448 -0.649994 0.577675
								CHANNELS 3 Xrotation Yrotation Zrotation
								End Site
								{
									OFFSET 0.000000 15.991302 0.000000
								}
							}
						}
						JOINT newVegas:Right_CapeA
						{
							OFFSET -5.115540 -8.608795 -10.395824
							CHANNELS 3 Xrotation Yrotation Zrotation
							JOINT newVegas:Right_CapeA1
							{
								OFFSET 0.000000 -8.688499 0.000000
								CHANNELS 3 Xrotation Yrotation Zrotation
								End Site
								{
									OFFSET 0.000000 8.688499 0.000000
								}
							}
						}
						JOINT newVegas:Right_CapeB
						{
							OFFSET -26.118187 -8.608795 -7.079266
							CHANNELS 3 Xrotation Yrotation Zrotation
							JOINT newVegas:Right_CapeB1
							{
								OFFSET 0.000000 -8.688499 0.000000
								CHANNELS 3 Xrotation Yrotation Zrotation
								End Site
								{
									OFFSET 0.000000 8.688499 0.000000
								}
							}
						}
					}
				}
				JOINT newVegas:Left_Collar
				{
					OFFSET 18.625099 8.655502 8.828100
					CHANNELS 3 Xrotation Yrotation Zrotation
					JOINT newVegas:Left_Collar1
					{
						OFFSET 14.783401 10.540405 -1.259500
						CHANNELS 3 Xrotation Yrotation Zrotation
						End Site
						{
							OFFSET 0.000000 18.199875 0.000000
						}
					}
				}
				JOINT newVegas:Collar_Back
				{
					OFFSET 0.000000 15.630707 -20.132601
					CHANNELS 3 Xrotation Yrotation Zrotation
					End Site
					{
						OFFSET 0.000000 22.523010 0.000000
					}
				}
				JOINT newVegas:Left_Peck
				{
					OFFSET 17.239599 -5.132599 25.482599
					CHANNELS 3 Xrotation Yrotation Zrotation
					End Site
					{
						OFFSET 0.000000 22.523010 0.000000
					}
				}
				JOINT newVegas:Right_Peck
				{
					OFFSET -17.239599 -5.132202 25.482599
					CHANNELS 3 Xrotation Yrotation Zrotation
					End Site
					{
						OFFSET 0.000000 22.523010 0.000000
					}
				}
				JOINT newVegas:Right_Collar
				{
					OFFSET -18.625099 8.655792 8.828100
					CHANNELS 3 Xrotation Yrotation Zrotation
					JOINT newVegas:Right_Collar1
					{
						OFFSET -14.783401 10.539993 -1.259500
						CHANNELS 3 Xrotation Yrotation Zrotation
						End Site
						{
							OFFSET 0.000000 18.199631 0.000000
						}
					}
				}
			}
		}
		JOINT newVegas:Belly
		{
			OFFSET 0.000000 -6.540398 9.014299
			CHANNELS 3 Xrotation Yrotation Zrotation
			End Site
			{
				OFFSET 0.000000 11.566666 0.000000
			}
		}
	}
	JOINT newVegas:ElvisFacialAnim_Joint
	{
		OFFSET 1.000000 -95.330101 -8.825800
		CHANNELS 3 Xrotation Yrotation Zrotation
		End Site
		{
			OFFSET 0.000000 35.315800 0.000000
		}
	}
}
MOTION
Frames: 4
Frame Time: 0.033333
-2.619800 86.978905 3.182229 7.764466 -45.921162 3.925261 -0.000000 -0.000002 0.000000 -53.681715 3.947998 0.552130 111.009050 7.734369 -0.505065 -3.997865 5.114143 8.896079 0.000001 -0.000001 0.000001 -0.000002 0.000000 -0.000000 -31.415674 -10.453597 11.570623 47.716887 -1.347713 -3.167656 -20.983221 0.833807 -9.868337 0.000000 -0.000000 -0.000000 -0.000001 0.000001 -0.000003 17.390954 5.033187 -4.930062 10.968612 9.506551 -4.415882 10.333612 9.779534 -4.545192 -0.686096 0.942494 -0.059680 -0.686081 0.942480 -0.059672 0.000004 0.000000 -0.000000 -0.686062 0.942502 -0.059684 -0.686059 0.942466 -0.059674 -0.000002 -0.000001 0.000001 0.000004 0.000000 -0.000000 9.789848 -6.099628 -0.505369 -32.103241 8.911655 -69.446652 -99.731041 8.231293 -70.451270 -15.612834 24.292669 -5.427161 0.699124 9.503384 -2.418115 5.975197 12.647550 1.348334 0.000001 -0.000002 -0.000003 9.479715 -1.289788 -20.785562 0.709476 2.796451 -28.467117 0.000001 -0.000001 -0.000001 10.058171 -1.800590 -20.644720 1.774255 4.200508 -45.782051 -0.000002 0.000001 0.000003 1.254231 -0.073733 -17.945777 3.754111 5.463601 -68.965247 0.000001 0.000001 0.000000 -7.938262 1.609097 -6.495682 2.210571 4.583657 -51.475212 -0.000004 -0.000002 -0.000000 0.000001 -0.000000 -0.000002 0.000001 -0.000000 -0.000002 0.000001 -0.000001 -0.000002 0.000002 -0.000002 0.000001 0.000002 -0.000001 0.000001 0.000002 -0.000002 0.000001 0.000003 -0.000001 0.000001 13.858450 12.210665 -0.777427 30.653824 48.135359 5.471985 -107.410605 53.844792 85.277357 -19.218390 28.838056 21.416910 13.942456 -4.273703 -5.300359 7.113131 -20.767515 -2.619485 0.000000 0.000000 0.000001 0.357749 -5.832722 5.175846 0.094339 -0.933646 11.539841 -0.000001 0.000001 0.000000 3.764113 -12.080521 1.143775 5.714222 -4.535869 103.133493 0.000002 -0.000002 0.000000 -12.155563 -12.623915 9.228380 6.566893 -4.248403 114.232339 0.000000 0.000001 -0.000000 -17.635747 -10.496834 3.325423 4.993641 -4.644992 94.147935 -0.000002 0.000003 -0.000001 0.000002 -0.000002 -0.000005 0.000000 0.000001 -0.000003 0.000002 -0.000002 -0.000006 -0.000000 -0.000001 0.000001 -0.000000 0.000000 -0.000000 -0.000000 -0.000001 0.000001 -0.000000 -0.000000 0.000000 0.000003 0.000001 0.000000 0.000003 0.000001 0.000000 0.000003 0.000001 0.000000 0.000003 0.000001 0.000000 0.000003 0.000001 0.000000 0.000003 0.000001 0.000000 0.000003 0.000001 0.000000 -0.000002 -0.000000 0.000000 -0.000000 -0.000002 0.000000 
-20.272022 86.809662 19.954268 7.463775 -47.304022 5.427334 -0.000000 -0.000000 0.000000 -79.573077 3.189101 -0.549767 113.692044 7.365322 -0.591205 -5.265091 0.716865 11.224352 -0.000002 -0.000003 0.000000 -0.000003 -0.000001 0.000000 -4.901252 -10.942657 8.845682 39.908314 2.832378 -3.663663 -33.276036 3.402146 -8.114424 -0.000000 0.000002 -0.000000 -0.000002 -0.000003 0.000001 16.553035 7.135817 -5.825832 10.979779 12.185598 -3.601663 10.092098 12.652989 -3.324800 -0.948835 0.620895 -0.009716 -0.948832 0.620892 -0.009721 0.000001 -0.000000 0.000000 -0.948845 0.620896 -0.009725 -0.948859 0.620907 -0.009710 -0.000003 0.000001 0.000000 0.000001 -0.000000 -0.000000 7.180790 -2.533947 -5.916386 -31.877613 4.555507 -59.766136 -99.501868 9.177664 -72.523796 -21.857403 22.649116 -1.166662 0.699122 9.503384 -2.418117 5.975196 12.647547 1.348339 -0.000000 -0.000000 -0.000005 9.479714 -1.289787 -20.785562 0.709474 2.796453 -28.467119 0.000000 -0.000000 0.000002 10.058172 -1.800589 -20.644718 1.774255 4.200507 -45.782051 0.000002 -0.000002 0.000004 1.254230 -0.073732 -17.945776 3.754111 5.463597 -68.965253 -0.000002 -0.000001 -0.000000 -7.938267 1.609096 -6.495679 2.210567 4.583662 -51.475202 0.000001 -0.000005 -0.000001 -0.000000 -0.000002 -0.000001 -0.000000 -0.000002 -0.000001 -0.000001 -0.000001 -0.000001 -0.000001 -0.000001 0.000000 -0.000001 -0.000000 -0.000003 -0.000001 -0.000001 0.000000 -0.000001 -0.000001 0.000000 13.453098 12.664222 -0.869023 30.423322 53.004904 -0.010679 -105.267893 53.938701 83.209845 -21.090325 26.375172 19.367194 13.942452 -4.273701 -5.300360 7.113131 -20.767518 -2.619484 -0.000000 -0.000001 0.000001 0.357745 -5.832717 5.175846 0.094337 -0.933645 11.539841 -0.000001 -0.000001 -0.000001 3.764110 -12.080517 1.143778 5.714224 -4.535866 103.133493 0.000000 0.000001 -0.000000 -12.155569 -12.623913 9.228378 6.566889 -4.248400 114.232339 -0.000002 -0.000001 -0.000000 -17.635752 -10.496835 3.325422 4.993644 -4.644993 94.147942 0.000000 0.000003 -0.000001 0.000000 0.000002 -0.000001 0.000000 -0.000001 0.000000 0.000000 0.000002 -0.000000 0.000000 -0.000003 -0.000000 0.000000 -0.000003 -0.000000 0.000000 -0.000003 -0.000000 0.000000 -0.000003 -0.000000 -0.000002 0.000000 -0.000000 -0.000002 0.000000 -0.000000 -0.000002 0.000000 -0.000000 -0.000002 0.000000 -0.000000 -0.000002 0.000000 -0.000000 -0.000002 0.000000 -0.000000 -0.000002 0.000000 -0.000000 -0.000000 -0.000000 -0.000001 -0.000000 -0.000000 0.000000 
-38.455990 85.766602 38.113701 7.657946 -46.880670 6.782623 -0.000000 -0.000002 0.000000 -92.345906 -0.855652 -1.160140 97.841340 2.561931 -0.519605 8.026795 -0.868704 8.771169 -0.000003 -0.000001 -0.000000 0.000000 -0.000004 0.000001 4.208585 -13.161261 5.161501 38.194428 2.764992 -3.664918 -5.715898 2.565629 -6.615811 -0.000006 -0.000000 -0.000003 -0.000001 -0.000003 0.000001 15.577095 8.916152 -5.833756 11.004470 14.087758 -2.996487 9.860438 14.707371 -2.427771 -0.917342 0.306228 0.056119 -0.917351 0.306225 0.056130 0.000004 0.000000 -0.000001 -0.917317 0.306237 0.056114 -0.917322 0.306221 0.056128 -0.000001 -0.000001 -0.000001 0.000004 0.000000 0.000000 4.148006 0.395593 -13.662660 -26.484362 -6.183910 -47.025477 -97.974966 7.473070 -78.478518 -32.069343 16.519788 3.674122 0.699124 9.503385 -2.418117 5.975196 12.647548 1.348337 0.000001 -0.000000 -0.000003 9.479713 -1.289789 -20.785560 0.709478 2.796453 -28.467115 0.000001 -0.000002 0.000001 10.058174 -1.800589 -20.644718 1.774253 4.200506 -45.782048 -0.000001 0.000000 0.000004 1.254230 -0.073733 -17.945776 3.754110 5.463597 -68.965253 0.000001 -0.000001 0.000001 -7.938266 1.609099 -6.495684 2.210569 4.583660 -51.475202 0.000001 -0.000001 -0.000005 0.000001 0.000000 -0.000000 0.000001 0.000000 -0.000000 -0.000000 0.000001 -0.000000 -0.000001 0.000001 -0.000002 -0.000000 -0.000000 -0.000004 -0.000001 0.000001 -0.000002 -0.000001 0.000000 -0.000002 13.017671 13.011737 -0.926363 32.219392 49.617831 -1.758734 -114.061181 51.160856 93.430772 -19.207897 26.370437 14.985631 13.942449 -4.273699 -5.300360 7.113129 -20.767520 -2.619488 -0.000001 -0.000001 0.000006 0.357747 -5.832714 5.175846 0.094337 -0.933646 11.539841 -0.000000 0.000002 -0.000000 3.764117 -12.080520 1.143772 5.714218 -4.535869 103.133493 -0.000001 0.000000 -0.000000 -12.155564 -12.623908 9.228375 6.566898 -4.248398 114.232332 -0.000000 0.000001 -0.000001 -17.635745 -10.496834 3.325426 4.993644 -4.644994 94.147935 0.000002 -0.000002 0.000001 0.000003 0.000001 -0.000000 0.000001 0.000000 -0.000003 0.000003 0.000001 -0.000001 0.000000 0.000002 -0.000001 0.000000 0.000002 -0.000001 0.000000 0.000002 -0.000001 0.000000 0.000002 -0.000001 0.000002 0.000000 0.000000 0.000002 0.000000 0.000000 0.000002 0.000000 0.000000 0.000002 0.000000 0.000000 0.000002 0.000000 0.000000 0.000002 0.000000 0.000000 0.000002 0.000000 0.000000 -0.000002 0.000000 -0.000001 -0.000000 -0.000002 0.000000 
-55.983166 83.443825 55.341148 8.192295 -45.674015 9.352042 -0.000000 0.000001 0.000000 -89.023449 -3.299755 -2.274948 67.297144 0.775509 0.327462 22.867709 -1.368863 2.595665 -0.000000 -0.000001 -0.000001 0.000001 -0.000003 -0.000000 20.858669 -15.717099 3.162993 11.706168 6.114289 -1.398271 43.571238 1.945920 2.336939 -0.000001 0.000000 0.000001 -0.000003 -0.000002 -0.000001 14.430901 10.034340 -6.677550 10.999818 14.863832 -2.762831 9.740807 15.542987 -2.090881 -0.690230 0.027260 0.094074 -0.690234 0.027261 0.094077 0.000002 -0.000000 -0.000001 -0.690215 0.027255 0.094081 -0.690318 0.027281 0.094072 -0.000001 0.000000 -0.000001 0.000002 -0.000000 -0.000001 2.874888 1.204794 -14.806423 -28.428661 -11.613561 -46.150410 -98.437684 7.201135 -76.194940 -32.777729 18.740051 7.700022 0.699126 9.503384 -2.418114 5.975196 12.647549 1.348339 0.000001 -0.000003 -0.000006 9.479714 -1.289789 -20.785560 0.709476 2.796452 -28.467119 0.000000 0.000001 0.000000 10.058171 -1.800588 -20.644716 1.774253 4.200506 -45.782051 0.000000 -0.000001 0.000003 1.254232 -0.073732 -17.945777 3.754112 5.463599 -68.965253 0.000001 0.000001 -0.000000 -7.938263 1.609098 -6.495681 2.210566 4.583660 -51.475205 0.000000 -0.000001 -0.000003 -0.000000 0.000000 0.000000 -0.000000 0.000000 0.000000 -0.000001 0.000000 0.000000 0.000000 -0.000001 0.000001 -0.000000 -0.000000 -0.000003 0.000000 -0.000001 0.000001 -0.000000 -0.000000 0.000000 12.813785 13.152989 -0.946216 32.563135 46.695743 -0.543104 -120.723416 51.941669 102.003213 -19.497408 27.116133 7.805905 13.942452 -4.273700 -5.300358 7.113134 -20.767520 -2.619489 0.000001 -0.000001 0.000001 0.357748 -5.832717 5.175853 0.094338 -0.933645 11.539840 -0.000001 0.000000 -0.000000 3.764109 -12.080515 1.143778 5.714220 -4.535868 103.133493 0.000001 -0.000001 0.000000 -12.155572 -12.623908 9.228377 6.566893 -4.248402 114.232339 -0.000001 0.000004 -0.000000 -17.635757 -10.496836 3.325419 4.993639 -4.644991 94.147935 0.000000 0.000005 -0.000003 0.000001 -0.000000 -0.000002 0.000001 -0.000001 -0.000001 0.000001 -0.000000 -0.000002 -0.000000 0.000002 0.000001 -0.000000 0.000002 0.000001 -0.000000 0.000002 0.000001 -0.000000 0.000002 0.000000 0.000003 0.000000 0.000000 0.000003 0.000000 0.000000 0.000003 0.000000 0.000000 0.000003 0.000000 0.000000 0.000003 0.000000 0.000000 0.000003 0.000000 0.000000 0.000003 0.000000 0.000000 -0.000000 0.000001 -0.000001 -0.000000 0.000001 0.000000 
